<mxfile host="app.diagrams.net" modified="2024-02-23T14:03:51.433Z" agent="Mozilla/5.0 (X11; Linux x86_64) AppleWebKit/537.36 (KHTML, like Gecko) Chrome/121.0.0.0 Safari/537.36" etag="Ifu30mqclXg9dueVc3cX" version="23.1.6" type="google">
  <diagram name="Page-1" id="cYJ2oHd8yD5_NzTxX7IC">
    <mxGraphModel dx="1390" dy="734" grid="1" gridSize="10" guides="1" tooltips="1" connect="1" arrows="1" fold="1" page="1" pageScale="1" pageWidth="827" pageHeight="1169" math="0" shadow="0">
      <root>
        <mxCell id="0" />
        <mxCell id="1" parent="0" />
        <mxCell id="TBFlXTTNRLChNCpDvGpm-5" value="Main page" style="rounded=0;whiteSpace=wrap;html=1;" parent="1" vertex="1">
          <mxGeometry x="170" y="340" width="120" height="60" as="geometry" />
        </mxCell>
        <mxCell id="TBFlXTTNRLChNCpDvGpm-19" style="edgeStyle=orthogonalEdgeStyle;rounded=0;orthogonalLoop=1;jettySize=auto;html=1;entryX=0.5;entryY=1;entryDx=0;entryDy=0;" parent="1" source="TBFlXTTNRLChNCpDvGpm-16" target="TBFlXTTNRLChNCpDvGpm-20" edge="1">
          <mxGeometry relative="1" as="geometry">
            <mxPoint x="480" y="190" as="targetPoint" />
          </mxGeometry>
        </mxCell>
        <mxCell id="TBFlXTTNRLChNCpDvGpm-22" style="edgeStyle=orthogonalEdgeStyle;rounded=0;orthogonalLoop=1;jettySize=auto;html=1;entryX=0.5;entryY=0;entryDx=0;entryDy=0;" parent="1" source="TBFlXTTNRLChNCpDvGpm-16" target="TBFlXTTNRLChNCpDvGpm-23" edge="1">
          <mxGeometry relative="1" as="geometry">
            <mxPoint x="480" y="550" as="targetPoint" />
          </mxGeometry>
        </mxCell>
        <mxCell id="TBFlXTTNRLChNCpDvGpm-46" style="edgeStyle=orthogonalEdgeStyle;rounded=0;orthogonalLoop=1;jettySize=auto;html=1;entryX=0;entryY=0.5;entryDx=0;entryDy=0;" parent="1" source="TBFlXTTNRLChNCpDvGpm-16" target="TBFlXTTNRLChNCpDvGpm-45" edge="1">
          <mxGeometry relative="1" as="geometry" />
        </mxCell>
        <mxCell id="TBFlXTTNRLChNCpDvGpm-16" value="Which option?" style="strokeWidth=2;html=1;shape=mxgraph.flowchart.decision;whiteSpace=wrap;" parent="1" vertex="1">
          <mxGeometry x="380" y="320" width="200" height="100" as="geometry" />
        </mxCell>
        <mxCell id="TBFlXTTNRLChNCpDvGpm-18" style="edgeStyle=orthogonalEdgeStyle;rounded=0;orthogonalLoop=1;jettySize=auto;html=1;entryX=0;entryY=0.5;entryDx=0;entryDy=0;entryPerimeter=0;" parent="1" source="TBFlXTTNRLChNCpDvGpm-5" target="TBFlXTTNRLChNCpDvGpm-16" edge="1">
          <mxGeometry relative="1" as="geometry" />
        </mxCell>
        <mxCell id="TBFlXTTNRLChNCpDvGpm-31" style="edgeStyle=orthogonalEdgeStyle;rounded=0;orthogonalLoop=1;jettySize=auto;html=1;entryX=0;entryY=0.5;entryDx=0;entryDy=0;" parent="1" source="TBFlXTTNRLChNCpDvGpm-20" target="TBFlXTTNRLChNCpDvGpm-30" edge="1">
          <mxGeometry relative="1" as="geometry" />
        </mxCell>
        <mxCell id="TBFlXTTNRLChNCpDvGpm-20" value="Choose files to upload (.zip/multiple file selection)" style="rounded=0;whiteSpace=wrap;html=1;" parent="1" vertex="1">
          <mxGeometry x="420" y="120" width="120" height="60" as="geometry" />
        </mxCell>
        <mxCell id="TBFlXTTNRLChNCpDvGpm-21" value="Upload files" style="text;html=1;align=center;verticalAlign=middle;resizable=0;points=[];autosize=1;strokeColor=none;fillColor=none;" parent="1" vertex="1">
          <mxGeometry x="480" y="238" width="90" height="30" as="geometry" />
        </mxCell>
        <mxCell id="TBFlXTTNRLChNCpDvGpm-26" style="edgeStyle=orthogonalEdgeStyle;rounded=0;orthogonalLoop=1;jettySize=auto;html=1;entryX=0;entryY=0.5;entryDx=0;entryDy=0;" parent="1" source="TBFlXTTNRLChNCpDvGpm-23" target="TBFlXTTNRLChNCpDvGpm-25" edge="1">
          <mxGeometry relative="1" as="geometry" />
        </mxCell>
        <mxCell id="TBFlXTTNRLChNCpDvGpm-23" value="Table view of products (w/search and filter)" style="rounded=0;whiteSpace=wrap;html=1;" parent="1" vertex="1">
          <mxGeometry x="420" y="555" width="120" height="60" as="geometry" />
        </mxCell>
        <mxCell id="TBFlXTTNRLChNCpDvGpm-24" value="View Records" style="text;html=1;align=center;verticalAlign=middle;resizable=0;points=[];autosize=1;strokeColor=none;fillColor=none;" parent="1" vertex="1">
          <mxGeometry x="480" y="468" width="100" height="30" as="geometry" />
        </mxCell>
        <mxCell id="TBFlXTTNRLChNCpDvGpm-28" style="edgeStyle=orthogonalEdgeStyle;rounded=0;orthogonalLoop=1;jettySize=auto;html=1;entryX=0;entryY=0.5;entryDx=0;entryDy=0;" parent="1" source="TBFlXTTNRLChNCpDvGpm-25" target="TBFlXTTNRLChNCpDvGpm-27" edge="1">
          <mxGeometry relative="1" as="geometry" />
        </mxCell>
        <mxCell id="TBFlXTTNRLChNCpDvGpm-25" value="Edit entries" style="whiteSpace=wrap;html=1;" parent="1" vertex="1">
          <mxGeometry x="680" y="555" width="120" height="60" as="geometry" />
        </mxCell>
        <mxCell id="TBFlXTTNRLChNCpDvGpm-29" style="edgeStyle=orthogonalEdgeStyle;rounded=0;orthogonalLoop=1;jettySize=auto;html=1;entryX=0.5;entryY=1;entryDx=0;entryDy=0;" parent="1" source="TBFlXTTNRLChNCpDvGpm-27" target="TBFlXTTNRLChNCpDvGpm-23" edge="1">
          <mxGeometry relative="1" as="geometry">
            <Array as="points">
              <mxPoint x="970" y="635" />
              <mxPoint x="480" y="635" />
            </Array>
          </mxGeometry>
        </mxCell>
        <mxCell id="TBFlXTTNRLChNCpDvGpm-27" value="Confirmation" style="whiteSpace=wrap;html=1;" parent="1" vertex="1">
          <mxGeometry x="910" y="555" width="120" height="60" as="geometry" />
        </mxCell>
        <mxCell id="TBFlXTTNRLChNCpDvGpm-30" value="Upload files" style="whiteSpace=wrap;html=1;" parent="1" vertex="1">
          <mxGeometry x="680" y="120" width="120" height="60" as="geometry" />
        </mxCell>
        <mxCell id="TBFlXTTNRLChNCpDvGpm-43" value="" style="edgeStyle=elbowEdgeStyle;elbow=vertical;endArrow=classic;html=1;curved=0;rounded=0;endSize=8;startSize=8;entryX=0.5;entryY=0;entryDx=0;entryDy=0;exitX=0.5;exitY=0;exitDx=0;exitDy=0;" parent="1" source="TBFlXTTNRLChNCpDvGpm-30" target="TBFlXTTNRLChNCpDvGpm-5" edge="1">
          <mxGeometry width="50" height="50" relative="1" as="geometry">
            <mxPoint x="740" y="110" as="sourcePoint" />
            <mxPoint x="230" y="120" as="targetPoint" />
            <Array as="points">
              <mxPoint x="480" y="60" />
            </Array>
          </mxGeometry>
        </mxCell>
        <mxCell id="TBFlXTTNRLChNCpDvGpm-45" value="Processing logs (start, finish, error)" style="whiteSpace=wrap;html=1;" parent="1" vertex="1">
          <mxGeometry x="760" y="340" width="120" height="60" as="geometry" />
        </mxCell>
        <mxCell id="TBFlXTTNRLChNCpDvGpm-47" value="Logs" style="text;html=1;align=center;verticalAlign=middle;resizable=0;points=[];autosize=1;strokeColor=none;fillColor=none;" parent="1" vertex="1">
          <mxGeometry x="640" y="340" width="50" height="30" as="geometry" />
        </mxCell>
        <mxCell id="TBFlXTTNRLChNCpDvGpm-50" value="" style="endArrow=none;dashed=1;html=1;dashPattern=1 3;strokeWidth=2;rounded=0;entryX=1;entryY=0.5;entryDx=0;entryDy=0;exitX=0;exitY=0.5;exitDx=0;exitDy=0;" parent="1" source="2" target="TBFlXTTNRLChNCpDvGpm-30" edge="1">
          <mxGeometry width="50" height="50" relative="1" as="geometry">
            <mxPoint x="820" y="230" as="sourcePoint" />
            <mxPoint x="820" y="290" as="targetPoint" />
            <Array as="points">
              <mxPoint x="820" y="280" />
              <mxPoint x="820" y="150" />
            </Array>
          </mxGeometry>
        </mxCell>
        <mxCell id="TBFlXTTNRLChNCpDvGpm-52" value="Start process in background" style="text;html=1;align=center;verticalAlign=middle;resizable=0;points=[];autosize=1;strokeColor=none;fillColor=none;" parent="1" vertex="1">
          <mxGeometry x="390" y="28" width="170" height="30" as="geometry" />
        </mxCell>
        <mxCell id="2" value="Notification" style="whiteSpace=wrap;html=1;" parent="1" vertex="1">
          <mxGeometry x="840" y="250" width="120" height="60" as="geometry" />
        </mxCell>
        <mxCell id="3" value="When finished" style="text;html=1;align=center;verticalAlign=middle;resizable=0;points=[];autosize=1;strokeColor=none;fillColor=none;" parent="1" vertex="1">
          <mxGeometry x="720" y="208" width="100" height="30" as="geometry" />
        </mxCell>
        <mxCell id="4" value="" style="endArrow=none;dashed=1;html=1;dashPattern=1 3;strokeWidth=2;rounded=0;entryX=1;entryY=0.5;entryDx=0;entryDy=0;exitX=1;exitY=0.5;exitDx=0;exitDy=0;" parent="1" source="TBFlXTTNRLChNCpDvGpm-45" edge="1">
          <mxGeometry width="50" height="50" relative="1" as="geometry">
            <mxPoint x="1000" y="410" as="sourcePoint" />
            <mxPoint x="960" y="280" as="targetPoint" />
            <Array as="points">
              <mxPoint x="980" y="370" />
              <mxPoint x="980" y="280" />
            </Array>
          </mxGeometry>
        </mxCell>
        <mxCell id="5" value="Send result to" style="text;html=1;align=center;verticalAlign=middle;resizable=0;points=[];autosize=1;strokeColor=none;fillColor=none;" parent="1" vertex="1">
          <mxGeometry x="980" y="310" width="100" height="30" as="geometry" />
        </mxCell>
      </root>
    </mxGraphModel>
  </diagram>
</mxfile>
